<svg id="visual" viewBox="0 0 960 540" width="960" height="540" xmlns="http://www.w3.org/2000/svg" xmlns:xlink="http://www.w3.org/1999/xlink" version="1.1"><path d="M0 222L22.8 237C45.7 252 91.3 282 137 286C182.7 290 228.3 268 274 253.7C319.7 239.3 365.3 232.7 411.2 234.7C457 236.7 503 247.3 548.8 249.7C594.7 252 640.3 246 686 238.8C731.7 231.7 777.3 223.3 823 228.2C868.7 233 914.3 251 937.2 260L960 269L960 541L937.2 541C914.3 541 868.7 541 823 541C777.3 541 731.7 541 686 541C640.3 541 594.7 541 548.8 541C503 541 457 541 411.2 541C365.3 541 319.7 541 274 541C228.3 541 182.7 541 137 541C91.3 541 45.7 541 22.8 541L0 541Z" fill="#f7770f"></path><path d="M0 287L22.8 288.7C45.7 290.3 91.3 293.7 137 306C182.7 318.3 228.3 339.7 274 339.8C319.7 340 365.3 319 411.2 312.7C457 306.3 503 314.7 548.8 316.7C594.7 318.7 640.3 314.3 686 314.8C731.7 315.3 777.3 320.7 823 314.8C868.7 309 914.3 292 937.2 283.5L960 275L960 541L937.2 541C914.3 541 868.7 541 823 541C777.3 541 731.7 541 686 541C640.3 541 594.7 541 548.8 541C503 541 457 541 411.2 541C365.3 541 319.7 541 274 541C228.3 541 182.7 541 137 541C91.3 541 45.7 541 22.8 541L0 541Z" fill="#ff5d77"></path><path d="M0 351L22.8 355.2C45.7 359.3 91.3 367.7 137 367C182.7 366.3 228.3 356.7 274 354.2C319.7 351.7 365.3 356.3 411.2 360C457 363.7 503 366.3 548.8 373.3C594.7 380.3 640.3 391.7 686 391.3C731.7 391 777.3 379 823 376.7C868.7 374.3 914.3 381.7 937.2 385.3L960 389L960 541L937.2 541C914.3 541 868.7 541 823 541C777.3 541 731.7 541 686 541C640.3 541 594.7 541 548.8 541C503 541 457 541 411.2 541C365.3 541 319.7 541 274 541C228.3 541 182.7 541 137 541C91.3 541 45.7 541 22.8 541L0 541Z" fill="#f571c7"></path><path d="M0 392L22.8 399C45.7 406 91.3 420 137 420.2C182.7 420.3 228.3 406.7 274 408.8C319.7 411 365.3 429 411.2 431.5C457 434 503 421 548.8 414.8C594.7 408.7 640.3 409.3 686 414.8C731.7 420.3 777.3 430.7 823 429.8C868.7 429 914.3 417 937.2 411L960 405L960 541L937.2 541C914.3 541 868.7 541 823 541C777.3 541 731.7 541 686 541C640.3 541 594.7 541 548.8 541C503 541 457 541 411.2 541C365.3 541 319.7 541 274 541C228.3 541 182.7 541 137 541C91.3 541 45.7 541 22.8 541L0 541Z" fill="#ac94f6"></path><path d="M0 499L22.8 495.3C45.7 491.7 91.3 484.3 137 477C182.7 469.7 228.3 462.3 274 460.5C319.7 458.7 365.3 462.3 411.2 469C457 475.7 503 485.3 548.8 486.5C594.7 487.7 640.3 480.3 686 481.2C731.7 482 777.3 491 823 495.3C868.7 499.7 914.3 499.3 937.2 499.2L960 499L960 541L937.2 541C914.3 541 868.7 541 823 541C777.3 541 731.7 541 686 541C640.3 541 594.7 541 548.8 541C503 541 457 541 411.2 541C365.3 541 319.7 541 274 541C228.3 541 182.7 541 137 541C91.3 541 45.7 541 22.8 541L0 541Z" fill="#4facf7"></path></svg>